<svg xmlns="http://www.w3.org/2000/svg" viewBox="0 0 512 512">
<defs>
<linearGradient id="bg" x1="0" y1="0" x2="0" y2="1"><stop offset="0" stop-color="#0f2a25"/><stop offset=".55" stop-color="#1d4a42"/><stop offset=".85" stop-color="#3f6f61"/><stop offset="1" stop-color="#86a99b"/></linearGradient>
<radialGradient id="glow" cx=".5" cy=".5" r=".5"><stop offset="0" stop-color="#e8f3ee" stop-opacity=".16"/><stop offset="1" stop-color="#e8f3ee" stop-opacity="0"/></radialGradient>
<radialGradient id="pl" cx=".38" cy=".32" r=".8"><stop offset="0" stop-color="#e3f5ec"/><stop offset="1" stop-color="#8fc1ad"/></radialGradient>
</defs>
<rect width="512" height="512" fill="url(#bg)"/>
<circle cx="256" cy="256" r="200" fill="url(#glow)"/>
<g fill="#e8f3ee" opacity=".7"><circle cx="86" cy="92" r="2.2"/><circle cx="430" cy="70" r="1.6"/><circle cx="452" cy="410" r="1.8"/><circle cx="64" cy="420" r="1.4"/><circle cx="120" cy="460" r="1.2"/><circle cx="400" cy="140" r="1.1"/></g>
<path d="M420 96 l3.5 14.5 l14.5 3.5 l-14.5 3.5 l-3.5 14.5 l-3.5 -14.5 l-14.5 -3.5 l14.5 -3.5z" fill="#e8f3ee" opacity=".85"/>
<g fill="none" stroke="#e8f3ee" stroke-linecap="round">
<circle cx="256" cy="256" r="182" stroke-width="5" opacity=".95"/>
<circle cx="256" cy="256" r="150" stroke-width="2.2" opacity=".7"/>
<circle cx="256" cy="256" r="82" stroke-width="2" opacity=".55"/>
<g stroke-width="2.2" opacity=".7"><line x1="406.0" y1="256.0" x2="438.0" y2="256.0"/><line x1="385.9" y1="331.0" x2="413.6" y2="347.0"/><line x1="331.0" y1="385.9" x2="347.0" y2="413.6"/><line x1="256.0" y1="406.0" x2="256.0" y2="438.0"/><line x1="181.0" y1="385.9" x2="165.0" y2="413.6"/><line x1="126.1" y1="331.0" x2="98.4" y2="347.0"/><line x1="106.0" y1="256.0" x2="74.0" y2="256.0"/><line x1="126.1" y1="181.0" x2="98.4" y2="165.0"/><line x1="181.0" y1="126.1" x2="165.0" y2="98.4"/><line x1="256.0" y1="106.0" x2="256.0" y2="74.0"/><line x1="331.0" y1="126.1" x2="347.0" y2="98.4"/><line x1="385.9" y1="181.0" x2="413.6" y2="165.0"/></g>
<g stroke-width="1.4" opacity=".45"><line x1="431.3" y1="271.3" x2="437.3" y2="271.9"/><line x1="429.3" y1="286.6" x2="435.2" y2="287.6"/><line x1="426.0" y1="301.6" x2="431.8" y2="303.1"/><line x1="421.4" y1="316.2" x2="427.0" y2="318.2"/><line x1="415.5" y1="330.4" x2="420.9" y2="332.9"/><line x1="400.2" y1="356.9" x2="405.1" y2="360.4"/><line x1="390.8" y1="369.1" x2="395.4" y2="373.0"/><line x1="380.5" y1="380.5" x2="384.7" y2="384.7"/><line x1="369.1" y1="390.8" x2="373.0" y2="395.4"/><line x1="356.9" y1="400.2" x2="360.4" y2="405.1"/><line x1="330.4" y1="415.5" x2="332.9" y2="420.9"/><line x1="316.2" y1="421.4" x2="318.2" y2="427.0"/><line x1="301.6" y1="426.0" x2="303.1" y2="431.8"/><line x1="286.6" y1="429.3" x2="287.6" y2="435.2"/><line x1="271.3" y1="431.3" x2="271.9" y2="437.3"/><line x1="240.7" y1="431.3" x2="240.1" y2="437.3"/><line x1="225.4" y1="429.3" x2="224.4" y2="435.2"/><line x1="210.4" y1="426.0" x2="208.9" y2="431.8"/><line x1="195.8" y1="421.4" x2="193.8" y2="427.0"/><line x1="181.6" y1="415.5" x2="179.1" y2="420.9"/><line x1="155.1" y1="400.2" x2="151.6" y2="405.1"/><line x1="142.9" y1="390.8" x2="139.0" y2="395.4"/><line x1="131.5" y1="380.5" x2="127.3" y2="384.7"/><line x1="121.2" y1="369.1" x2="116.6" y2="373.0"/><line x1="111.8" y1="356.9" x2="106.9" y2="360.4"/><line x1="96.5" y1="330.4" x2="91.1" y2="332.9"/><line x1="90.6" y1="316.2" x2="85.0" y2="318.2"/><line x1="86.0" y1="301.6" x2="80.2" y2="303.1"/><line x1="82.7" y1="286.6" x2="76.8" y2="287.6"/><line x1="80.7" y1="271.3" x2="74.7" y2="271.9"/><line x1="80.7" y1="240.7" x2="74.7" y2="240.1"/><line x1="82.7" y1="225.4" x2="76.8" y2="224.4"/><line x1="86.0" y1="210.4" x2="80.2" y2="208.9"/><line x1="90.6" y1="195.8" x2="85.0" y2="193.8"/><line x1="96.5" y1="181.6" x2="91.1" y2="179.1"/><line x1="111.8" y1="155.1" x2="106.9" y2="151.6"/><line x1="121.2" y1="142.9" x2="116.6" y2="139.0"/><line x1="131.5" y1="131.5" x2="127.3" y2="127.3"/><line x1="142.9" y1="121.2" x2="139.0" y2="116.6"/><line x1="155.1" y1="111.8" x2="151.6" y2="106.9"/><line x1="181.6" y1="96.5" x2="179.1" y2="91.1"/><line x1="195.8" y1="90.6" x2="193.8" y2="85.0"/><line x1="210.4" y1="86.0" x2="208.9" y2="80.2"/><line x1="225.4" y1="82.7" x2="224.4" y2="76.8"/><line x1="240.7" y1="80.7" x2="240.1" y2="74.7"/><line x1="271.3" y1="80.7" x2="271.9" y2="74.7"/><line x1="286.6" y1="82.7" x2="287.6" y2="76.8"/><line x1="301.6" y1="86.0" x2="303.1" y2="80.2"/><line x1="316.2" y1="90.6" x2="318.2" y2="85.0"/><line x1="330.4" y1="96.5" x2="332.9" y2="91.1"/><line x1="356.9" y1="111.8" x2="360.4" y2="106.9"/><line x1="369.1" y1="121.2" x2="373.0" y2="116.6"/><line x1="380.5" y1="131.5" x2="384.7" y2="127.3"/><line x1="390.8" y1="142.9" x2="395.4" y2="139.0"/><line x1="400.2" y1="155.1" x2="405.1" y2="151.6"/><line x1="415.5" y1="181.6" x2="420.9" y2="179.1"/><line x1="421.4" y1="195.8" x2="427.0" y2="193.8"/><line x1="426.0" y1="210.4" x2="431.8" y2="208.9"/><line x1="429.3" y1="225.4" x2="435.2" y2="224.4"/><line x1="431.3" y1="240.7" x2="437.3" y2="240.1"/></g>
<line x1="74" y1="256" x2="438" y2="256" stroke-width="2.4" opacity=".6"/>
<path d="M200 150 L330 330 M318 176 L176 300 M200 150 L318 176" stroke="#afc8ee" stroke-width="2" opacity=".6"/>
</g>
<circle cx="256" cy="256" r="10" fill="#e8f3ee"/>
<circle cx="366" cy="110" r="18" fill="url(#pl)"/>
</svg>